<svg width="31" height="23" viewBox="0 0 31 23" fill="none" xmlns="http://www.w3.org/2000/svg">
<path d="M21.2305 15.529C20.2998 15.0592 19.2246 15.2035 18.4518 15.7977C18.4708 14.823 17.9487 13.8725 17.0176 13.4026C16.0869 12.9328 15.0118 13.0771 14.2389 13.6713C14.258 12.6966 13.7359 11.7461 12.8048 11.2762C11.8741 10.8064 10.799 10.9507 10.0263 11.545C10.0451 10.5702 9.52303 9.61975 8.59197 9.14981C7.90729 8.80422 7.14491 8.79517 6.48033 9.04705C9.15292 5.53892 13.9665 4.28224 17.9607 6.29824C21.955 8.31434 23.8029 12.9333 22.5674 17.1666C22.3754 16.4826 21.9153 15.8746 21.2305 15.529Z" stroke="#AD1E23" stroke-linecap="round" stroke-linejoin="round"/>
<path d="M8.98733 17.248C8.42682 18.3585 9.04464 19.176 9.59673 19.4546C10.1095 19.7134 10.5386 19.6382 10.8084 19.5294C11.3863 19.2963 11.6814 18.7425 11.7368 18.6291L14.8522 12.4567" stroke="#AD1E23" stroke-linecap="round" stroke-linejoin="round"/>
<path d="M18.3782 6.74013L18.9824 5.54297" stroke="#AD1E23" stroke-linecap="round" stroke-linejoin="round"/>
</svg>
