<?xml version="1.0" encoding="utf-8"?>
<!-- Generator: Adobe Illustrator 25.4.1, SVG Export Plug-In . SVG Version: 6.00 Build 0)  -->
<svg version="1.1" id="Layer_1" xmlns="http://www.w3.org/2000/svg" xmlns:xlink="http://www.w3.org/1999/xlink" x="0px" y="0px"
	 viewBox="0 0 62.7 30" style="enable-background:new 0 0 62.7 30;" xml:space="preserve">
<style type="text/css">
	.st0{filter:url(#Adobe_OpacityMaskFilter);}
	.st1{fill:#FFFFFF;}
	.st2{mask:url(#SVGID_1_);fill:none;stroke:#890000;stroke-width:0.7021;stroke-miterlimit:10;}
	.st3{fill:url(#SVGID_00000149381764564004162270000018346084732538364572_);}
</style>
<defs>
	<filter id="Adobe_OpacityMaskFilter" filterUnits="userSpaceOnUse" x="9.8" y="1.6" width="48.3" height="24.2">
		
			<feColorMatrix  type="matrix" values="-1 0 0 0 1  0 -1 0 0 1  0 0 -1 0 1  0 0 0 1 0" color-interpolation-filters="sRGB" result="source"/>
		<feFlood  style="flood-color:white;flood-opacity:1" result="back"/>
		<feBlend  in="source" in2="back" mode="normal"/>
	</filter>
</defs>
<mask maskUnits="userSpaceOnUse" x="9.8" y="1.6" width="48.3" height="24.2" id="SVGID_1_">
	<g class="st0">
		<polygon class="st1" points="54.1,30.5 26.5,30.5 23.4,22.6 54.1,22.6 		"/>
		<polygon class="st1" points="59,14.5 56.7,14.5 12.8,14.3 11.7,17.7 8.5,17.7 8,5.9 62.8,5.9 		"/>
	</g>
</mask>
<path class="st2" d="M54.9,25.4H13c-1.6,0-2.8-1.3-2.8-2.8V4.8C10.2,3.2,11.4,2,13,2h41.9c1.6,0,2.8,1.3,2.8,2.8v17.8
	C57.7,24.1,56.5,25.4,54.9,25.4z"/>
<radialGradient id="SVGID_00000067932693735712689630000003539334604974301375_" cx="35.9348" cy="-0.8691" r="44.2372" gradientUnits="userSpaceOnUse">
	<stop  offset="0" style="stop-color:#FF7600"/>
	<stop  offset="1" style="stop-color:#9A0E00"/>
</radialGradient>
<path style="fill:url(#SVGID_00000067932693735712689630000003539334604974301375_);" d="M9.1,8.2C8.9,7.8,8.5,7.4,8.1,7.1
	C7.4,6.6,6.7,6.4,5.8,6.4c-0.9,0-1.7,0.2-2.4,0.7C2.8,7.6,2.2,8.2,1.9,9c-0.4,0.8-0.6,1.7-0.6,2.8c0,1.1,0.2,2,0.6,2.8
	c0.4,0.8,0.9,1.4,1.6,1.8C4.1,16.8,4.9,17,5.8,17c0.9,0,1.6-0.2,2.3-0.6c0.5-0.3,0.8-0.7,1.1-1.2v1.6h2.5V6.7H9.1V8.2z M8.4,14.2
	c-0.5,0.6-1.1,0.9-1.9,0.9c-0.8,0-1.5-0.3-2-0.9c-0.5-0.6-0.7-1.4-0.7-2.4c0-1.1,0.2-1.9,0.7-2.5c0.5-0.6,1.1-0.9,2-0.9
	c0.8,0,1.5,0.3,1.9,0.9c0.5,0.6,0.7,1.4,0.7,2.5C9.1,12.8,8.9,13.6,8.4,14.2z M23,10.6v6.3h-2.5v-6.2c0-0.8-0.2-1.4-0.5-1.7
	c-0.3-0.4-0.8-0.6-1.4-0.6c-0.8,0-1.4,0.2-1.9,0.7c-0.5,0.5-0.7,1.1-0.7,1.9v5.8h-2.5V9.6c0-0.5,0-1,0-1.5c0-0.5-0.1-1-0.1-1.4h2.4
	l0.2,1.7c0.3-0.6,0.7-1,1.3-1.4c0.6-0.4,1.4-0.6,2.2-0.6C21.8,6.4,23,7.8,23,10.6z M26.7,20.9c-0.6,0.3-1.3,0.5-2.1,0.6l-0.6-1.9
	c0.6-0.1,1.2-0.3,1.6-0.5c0.4-0.2,0.8-0.4,1-0.7c0.3-0.3,0.5-0.6,0.7-1.1l0.3-0.8l-4.3-9.8h2.6l2.9,7.3l3-7.3h2.5l-4.7,10.9
	c-0.4,0.9-0.8,1.6-1.4,2.1C28,20.2,27.4,20.6,26.7,20.9z M38.1,6.8h1.2v1.1h-1.2v1.9c0,0.2,0,0.3,0.1,0.5c0.1,0.1,0.2,0.2,0.3,0.2
	c0.1,0,0.2,0.1,0.4,0.1c0.1,0,0.2,0,0.2,0c0.1,0,0.2,0,0.3,0v1.1c-0.1,0.1-0.3,0.1-0.4,0.1c-0.1,0-0.3,0-0.4,0
	c-0.6,0-1.1-0.2-1.4-0.5c-0.3-0.3-0.5-0.8-0.5-1.4V7.9h-0.9V6.8h0.9V5.7l1.4-0.5V6.8z M41.6,11.7h-1.4v-7h1.4v2.8
	c0.1-0.2,0.3-0.4,0.5-0.5c0.3-0.2,0.6-0.3,1-0.3c1.1,0,1.7,0.7,1.7,2v2.9h-1.4V8.8c0-0.3-0.1-0.6-0.2-0.7c-0.1-0.2-0.3-0.2-0.6-0.2
	c-0.3,0-0.6,0.1-0.8,0.3c-0.2,0.2-0.3,0.5-0.3,0.8V11.7z M47.5,5.9h-1.6V4.6h1.6V5.9z M46,11.7V6.8h1.4v4.8H46z M53.3,8.8v2.9h-1.4
	V8.8c0-0.3-0.1-0.6-0.2-0.7c-0.1-0.2-0.3-0.2-0.6-0.2c-0.3,0-0.6,0.1-0.8,0.3C50.1,8.4,50,8.6,50,9v2.7h-1.4V8.2c0-0.2,0-0.5,0-0.7
	c0-0.2,0-0.5-0.1-0.7h1.4l0.1,0.8c0.2-0.3,0.4-0.5,0.6-0.6c0.3-0.2,0.6-0.3,1-0.3C52.7,6.7,53.3,7.4,53.3,8.8z M57.9,6.8v0.7
	c-0.1-0.2-0.3-0.4-0.5-0.5c-0.3-0.2-0.7-0.3-1-0.3c-0.4,0-0.8,0.1-1.1,0.3c-0.3,0.2-0.6,0.5-0.8,0.8c-0.2,0.4-0.3,0.8-0.3,1.3
	c0,0.5,0.1,0.9,0.3,1.3c0.2,0.4,0.4,0.6,0.8,0.8c0.3,0.2,0.7,0.3,1.1,0.3c0.3,0,0.5,0,0.7-0.1c0.2-0.1,0.4-0.2,0.6-0.4
	c0.1-0.1,0.2-0.2,0.2-0.3v0.8c0,0.4-0.1,0.7-0.3,0.9c-0.2,0.2-0.5,0.3-0.9,0.3c-0.3,0-0.6,0-0.9-0.1c-0.3-0.1-0.6-0.2-0.9-0.3
	l-0.2,1.1c0.6,0.3,1.2,0.4,2,0.4c0.9,0,1.5-0.2,2-0.6c0.4-0.4,0.7-1,0.7-1.8V6.8H57.9z M57.6,10.1c-0.2,0.2-0.5,0.3-0.8,0.3
	c-0.4,0-0.6-0.1-0.8-0.4c-0.2-0.2-0.3-0.6-0.3-1c0-0.4,0.1-0.7,0.3-1c0.2-0.2,0.5-0.3,0.8-0.3c0.4,0,0.6,0.1,0.8,0.4
	c0.2,0.2,0.3,0.6,0.3,1C57.9,9.6,57.8,9.9,57.6,10.1z M31.9,23.5h1.4l-2,4.8h-1.2L29,25.5l-1.1,2.8h-1.2l-2-4.8h1.5l1.2,3.1l1.2-3.1
	h1l1.2,3.2L31.9,23.5z M38.6,25.4v2.9h-1.4v-2.9c0-0.3-0.1-0.6-0.2-0.7c-0.1-0.2-0.3-0.2-0.6-0.2c-0.3,0-0.6,0.1-0.8,0.3
	c-0.2,0.2-0.3,0.5-0.3,0.8v2.7h-1.4v-7h1.4v2.8c0.1-0.2,0.3-0.4,0.5-0.5c0.3-0.2,0.6-0.3,1-0.3C38,23.4,38.6,24,38.6,25.4z M43,23.7
	c-0.3-0.2-0.7-0.3-1.2-0.3c-0.5,0-0.9,0.1-1.2,0.3c-0.4,0.2-0.6,0.5-0.8,0.9c-0.2,0.4-0.3,0.8-0.3,1.3c0,0.5,0.1,1,0.3,1.3
	c0.2,0.4,0.5,0.7,0.9,0.9c0.4,0.2,0.9,0.3,1.4,0.3c0.3,0,0.7-0.1,1-0.2c0.3-0.1,0.6-0.2,0.9-0.4l-0.4-1c-0.2,0.2-0.4,0.3-0.7,0.4
	c-0.2,0.1-0.5,0.1-0.8,0.1c-0.4,0-0.8-0.1-1-0.4c-0.2-0.2-0.3-0.5-0.3-0.9H44v-0.2c0-0.5-0.1-0.9-0.3-1.3
	C43.6,24.1,43.3,23.9,43,23.7z M41.9,24.4c0.3,0,0.5,0.1,0.7,0.3c0.1,0.2,0.2,0.4,0.2,0.6h-1.9c0-0.2,0.1-0.4,0.2-0.6
	C41.3,24.5,41.5,24.4,41.9,24.4z M48.1,23.4c0.1,0,0.2,0,0.2,0.1l0,1.3c-0.2-0.1-0.5-0.2-0.7-0.2c-0.3,0-0.5,0-0.6,0.1
	c-0.2,0.1-0.3,0.2-0.4,0.4c-0.1,0.2-0.1,0.4-0.1,0.6v2.5h-1.4v-3.5c0-0.2,0-0.5,0-0.7c0-0.2,0-0.5-0.1-0.7h1.4l0.1,0.8
	c0.1-0.3,0.2-0.5,0.4-0.6c0.3-0.2,0.6-0.3,1-0.3C47.9,23.4,48,23.4,48.1,23.4z M52.1,23.7c-0.3-0.2-0.7-0.3-1.2-0.3
	c-0.5,0-0.9,0.1-1.2,0.3c-0.4,0.2-0.6,0.5-0.8,0.9c-0.2,0.4-0.3,0.8-0.3,1.3c0,0.5,0.1,1,0.3,1.3c0.2,0.4,0.5,0.7,0.9,0.9
	c0.4,0.2,0.9,0.3,1.4,0.3c0.3,0,0.7-0.1,1-0.2c0.3-0.1,0.6-0.2,0.9-0.4l-0.4-1c-0.2,0.2-0.4,0.3-0.7,0.4c-0.2,0.1-0.5,0.1-0.8,0.1
	c-0.4,0-0.8-0.1-1-0.4c-0.2-0.2-0.3-0.5-0.3-0.9h3.2v-0.2c0-0.5-0.1-0.9-0.3-1.3C52.7,24.1,52.4,23.9,52.1,23.7z M50.9,24.4
	c0.3,0,0.5,0.1,0.7,0.3c0.1,0.2,0.2,0.4,0.2,0.6h-1.9c0-0.2,0.1-0.4,0.2-0.6C50.4,24.5,50.6,24.4,50.9,24.4z M33.7,18.1v-1.9h-0.9
	v-1.1h0.9V14l1.4-0.5v1.6h1.2v1.1h-1.2v1.9c0,0.2,0,0.3,0.1,0.5c0.1,0.1,0.2,0.2,0.3,0.2c0.1,0,0.2,0.1,0.4,0.1c0.1,0,0.2,0,0.2,0
	c0.1,0,0.2,0,0.3,0v1.1C36.2,20,36.1,20,36,20c-0.1,0-0.3,0-0.4,0c-0.6,0-1.1-0.2-1.4-0.5C33.8,19.2,33.7,18.7,33.7,18.1z M38.5,20
	h-1.4v-4.8h1.4V20z M37,12.9h1.6v1.4H37V12.9z M45.1,16.1c-0.3,0-0.5,0.1-0.7,0.3c-0.2,0.2-0.2,0.5-0.2,0.9V20h-1.4v-2.9
	c0-0.3-0.1-0.6-0.2-0.7c-0.1-0.2-0.3-0.2-0.5-0.2c-0.3,0-0.5,0.1-0.7,0.3c-0.2,0.2-0.2,0.5-0.2,0.9V20h-1.4v-3.5c0-0.2,0-0.5,0-0.7
	c0-0.2,0-0.5-0.1-0.7H41l0.1,0.7c0.1-0.2,0.3-0.4,0.5-0.6c0.3-0.2,0.6-0.3,1-0.3c0.4,0,0.8,0.1,1,0.3c0.2,0.1,0.3,0.3,0.4,0.6
	c0.1-0.2,0.3-0.4,0.6-0.6c0.3-0.2,0.7-0.3,1-0.3c0.6,0,1,0.2,1.2,0.5c0.3,0.3,0.4,0.8,0.4,1.5V20h-1.4v-2.9c0-0.3-0.1-0.6-0.2-0.7
	C45.6,16.2,45.4,16.1,45.1,16.1z M49.4,19.8c0.4,0.2,0.9,0.3,1.4,0.3c0.3,0,0.7-0.1,1-0.2c0.3-0.1,0.6-0.2,0.9-0.4l-0.4-1
	c-0.2,0.2-0.4,0.3-0.7,0.4c-0.2,0.1-0.5,0.1-0.8,0.1c-0.4,0-0.8-0.1-1-0.4c-0.2-0.2-0.3-0.5-0.3-0.9h3.2v-0.2c0-0.5-0.1-0.9-0.3-1.3
	c-0.2-0.4-0.4-0.6-0.8-0.9C51.4,15.1,51,15,50.6,15c-0.5,0-0.9,0.1-1.2,0.3c-0.4,0.2-0.6,0.5-0.8,0.9c-0.2,0.4-0.3,0.8-0.3,1.3
	c0,0.5,0.1,1,0.3,1.3C48.7,19.3,49,19.6,49.4,19.8z M50.6,16c0.3,0,0.5,0.1,0.7,0.3c0.1,0.2,0.2,0.4,0.2,0.6h-1.9
	c0-0.2,0.1-0.4,0.2-0.6C50,16.2,50.3,16,50.6,16z"/>
</svg>
