<svg width="16" height="12" viewBox="0 0 16 12" fill="none" xmlns="http://www.w3.org/2000/svg">
<path d="M0 0H16V4H0V0Z" fill="#FF9933"/>
<path d="M0 4H16V8H0V4Z" fill="white"/>
<path d="M0 8H16V12H0V8Z" fill="#128807"/>
<path d="M8.00039 7.59844C8.88405 7.59844 9.60039 6.88209 9.60039 5.99844C9.60039 5.11478 8.88405 4.39844 8.00039 4.39844C7.11673 4.39844 6.40039 5.11478 6.40039 5.99844C6.40039 6.88209 7.11673 7.59844 8.00039 7.59844Z" fill="#000088"/>
<path d="M7.99961 7.39766C8.77281 7.39766 9.39961 6.77085 9.39961 5.99766C9.39961 5.22446 8.77281 4.59766 7.99961 4.59766C7.22641 4.59766 6.59961 5.22446 6.59961 5.99766C6.59961 6.77085 7.22641 7.39766 7.99961 7.39766Z" fill="white"/>
<path d="M8.0007 6.27875C8.15534 6.27875 8.2807 6.15339 8.2807 5.99875C8.2807 5.84411 8.15534 5.71875 8.0007 5.71875C7.84606 5.71875 7.7207 5.84411 7.7207 5.99875C7.7207 6.15339 7.84606 6.27875 8.0007 6.27875Z" fill="#000088"/>
<path d="M9.38071 6.25373C9.42013 6.25892 9.4563 6.23117 9.46149 6.19174C9.46668 6.15232 9.43893 6.11615 9.39951 6.11096C9.36008 6.10577 9.32392 6.13352 9.31873 6.17295C9.31354 6.21237 9.34129 6.24854 9.38071 6.25373Z" fill="#000088"/>
<path d="M8.00113 7.40015L8.04913 6.56016L8.00113 6.16016L7.95312 6.56016L8.00113 7.40015Z" fill="#000088"/>
</svg>
